<svg class="avatar-head-svg" viewBox="0 0 120 120" fill="none" xmlns="http://www.w3.org/2000/svg" aria-hidden="true">
  <defs>
    <radialGradient id="f3Face" cx="34%" cy="24%" r="74%">
      <stop offset="0" stop-color="#fff0e6"/>
      <stop offset="0.44" stop-color="#e8b896"/>
      <stop offset="1" stop-color="#b87d5a"/>
    </radialGradient>
    <linearGradient id="f3Hair" x1="8" y1="2" x2="112" y2="48">
      <stop stop-color="#6b3a2a"/>
      <stop offset="1" stop-color="#a65d42"/>
    </linearGradient>
    <linearGradient id="f3Headset" x1="25" y1="18" x2="92" y2="92">
      <stop stop-color="#7eb8b0"/>
      <stop offset="1" stop-color="#3d7a72"/>
    </linearGradient>
  </defs>
  <path d="M16 44c8-30 72-30 88 0 6 18 4 30-6 38-16 12-48 12-64 0-10-8-12-20-6-38z" fill="url(#f3Hair)"/>
  <ellipse cx="32" cy="60" rx="9" ry="14" fill="#d9a07a"/>
  <ellipse cx="88" cy="60" rx="9" ry="14" fill="#d9a07a"/>
  <ellipse cx="60" cy="64" rx="35" ry="40" fill="url(#f3Face)"/>
  <ellipse class="avatar-eye avatar-eye-left" cx="47" cy="58" rx="8.5" ry="6" fill="#fff8f0"/>
  <ellipse class="avatar-eye avatar-eye-right" cx="73" cy="58" rx="8.5" ry="6" fill="#fff8f0"/>
  <circle class="avatar-pupil" cx="48" cy="59" r="3.3" fill="#2d1a12"/>
  <circle class="avatar-pupil" cx="72" cy="59" r="3.3" fill="#2d1a12"/>
  <path class="avatar-brow avatar-brow-left" d="M39 46c5-4 10-5 15-2" stroke="#4a3028" stroke-width="2.6" stroke-linecap="round"/>
  <path class="avatar-brow avatar-brow-right" d="M66 45c5-3 10-4 15-1" stroke="#4a3028" stroke-width="2.6" stroke-linecap="round"/>
  <rect class="avatar-mouth" x="51" y="75" width="18" height="7" rx="3.5" fill="#8e4444"/>
  <path d="M30 58c0-24 15-38 30-38s30 14 30 38" stroke="url(#f3Headset)" stroke-width="7" stroke-linecap="round"/>
  <rect x="22" y="54" width="13" height="22" rx="7" fill="url(#f3Headset)"/>
  <rect x="85" y="54" width="13" height="22" rx="7" fill="url(#f3Headset)"/>
</svg>
