<svg class="avatar-head-svg" viewBox="0 0 120 120" fill="none" xmlns="http://www.w3.org/2000/svg" aria-hidden="true">
  <defs>
    <radialGradient id="f1Face" cx="34%" cy="24%" r="74%">
      <stop offset="0" stop-color="#fff5ef"/>
      <stop offset="0.44" stop-color="#f5d0b8"/>
      <stop offset="1" stop-color="#d9a48a"/>
    </radialGradient>
    <linearGradient id="f1Hair" x1="10" y1="0" x2="110" y2="50">
      <stop stop-color="#4a2c2a"/>
      <stop offset="1" stop-color="#7a4a42"/>
    </linearGradient>
    <linearGradient id="f1Headset" x1="25" y1="18" x2="92" y2="92">
      <stop stop-color="color-mix(in srgb, var(--accent) 60%, white)"/>
      <stop offset="1" stop-color="var(--accent)"/>
    </linearGradient>
  </defs>
  <path d="M18 42c6-28 68-28 84 0 8 22 4 36-8 44-18 12-50 12-68 0-12-8-16-22-8-44z" fill="url(#f1Hair)"/>
  <ellipse cx="32" cy="60" rx="9" ry="14" fill="#efc4ad"/>
  <ellipse cx="88" cy="60" rx="9" ry="14" fill="#efc4ad"/>
  <ellipse cx="60" cy="64" rx="35" ry="39" fill="url(#f1Face)"/>
  <ellipse class="avatar-eye avatar-eye-left" cx="47" cy="58" rx="8.5" ry="6.5" fill="#fffdf8"/>
  <ellipse class="avatar-eye avatar-eye-right" cx="73" cy="58" rx="8.5" ry="6.5" fill="#fffdf8"/>
  <circle class="avatar-pupil" cx="48" cy="59" r="3.4" fill="#3d2824"/>
  <circle class="avatar-pupil" cx="72" cy="59" r="3.4" fill="#3d2824"/>
  <path class="avatar-brow avatar-brow-left" d="M40 46c4-5 9-6 14-3" stroke="#5c3d38" stroke-width="2.5" stroke-linecap="round"/>
  <path class="avatar-brow avatar-brow-right" d="M66 45c4-4 9-5 14-2" stroke="#5c3d38" stroke-width="2.5" stroke-linecap="round"/>
  <rect class="avatar-mouth" x="51" y="74" width="18" height="7" rx="3.5" fill="#b85c5c"/>
  <path d="M30 58c0-24 15-38 30-38s30 14 30 38" stroke="url(#f1Headset)" stroke-width="7" stroke-linecap="round"/>
  <rect x="22" y="54" width="13" height="22" rx="7" fill="url(#f1Headset)"/>
  <rect x="85" y="54" width="13" height="22" rx="7" fill="url(#f1Headset)"/>
</svg>
