<svg xmlns="http://www.w3.org/2000/svg" viewBox="0 0 1160 948" width="1160" height="948" role="img" aria-label="Clay-style animated bar charts of year-over-year growth for total, legacy and new services across STC, e and, Ooredoo and Zain from 2025 to 2030.">
<desc>YoY growth comparison. New services grows around 20 percent per year, total revenue around 10 percent, legacy in low single digits.</desc>
<defs>
<filter id="claySoft" x="-60%" y="-60%" width="220%" height="220%">
  <feDropShadow dx="0" dy="7" stdDeviation="9" flood-color="#9a8f7e" flood-opacity="0.38"/>
</filter>
<filter id="clayBar" x="-80%" y="-30%" width="260%" height="180%">
  <feDropShadow dx="0" dy="4" stdDeviation="4" flood-color="#6b5f50" flood-opacity="0.30"/>
</filter>
<style>
text{font-family:'Inter','Segoe UI',system-ui,-apple-system,sans-serif;}
@keyframes grow{from{transform:scaleY(0);}to{transform:scaleY(1);}}
@keyframes bob{0%,100%{transform:translateY(0);}50%{transform:translateY(-5px);}}
@keyframes fadein{from{opacity:0;}to{opacity:1;}}
.grow{transform-box:fill-box;transform-origin:bottom;animation:grow 1s cubic-bezier(.34,1.56,.64,1) both;}
.bob{animation:bob 3.4s ease-in-out infinite;}
.lbl{animation:fadein .7s ease both;opacity:0;}
</style>
</defs>
<rect x="0" y="0" width="1160" height="948" rx="0" fill="#F4EEE2"/>
<text x="580.0" y="50" text-anchor="middle" font-size="27" font-weight="600" fill="#3F3A33">MENA telecom &#8212; YoY growth in clay</text>
<text x="580.0" y="78" text-anchor="middle" font-size="15" fill="#857C6E">Total revenue vs. legacy vs. new services &#183; 2025&#8211;2030</text>
<g transform="translate(345.0,92)">
<rect x="0" y="0" width="22" height="22" rx="9" fill="#7C83DB" filter="url(#clayBar)"/>
<rect x="3" y="3" width="16" height="8" rx="4" fill="#AEB3EE" opacity="0.7"/>
<text x="30" y="16" font-size="14" fill="#5C554A">Total revenue</text>
</g>
<g transform="translate(515.0,92)">
<rect x="0" y="0" width="22" height="22" rx="9" fill="#E89B73" filter="url(#clayBar)"/>
<rect x="3" y="3" width="16" height="8" rx="4" fill="#F4C2A3" opacity="0.7"/>
<text x="30" y="16" font-size="14" fill="#5C554A">Legacy services</text>
</g>
<g transform="translate(685.0,92)">
<rect x="0" y="0" width="22" height="22" rx="9" fill="#56C6A0" filter="url(#clayBar)"/>
<rect x="3" y="3" width="16" height="8" rx="4" fill="#8FE0C8" opacity="0.7"/>
<text x="30" y="16" font-size="14" fill="#5C554A">New services</text>
</g>
<g transform="translate(20,116)">
<rect x="0" y="0" width="540" height="380" rx="26" fill="#FBF7EF" filter="url(#claySoft)"/>
<rect x="14" y="12" width="512" height="16" rx="8" fill="#ffffff" opacity="0.55"/>
<text x="26" y="38" font-size="19" font-weight="600" fill="#3F3A33">STC</text>
<line x1="46" y1="344.0" x2="522" y2="344.0" stroke="#E4DBCB" stroke-width="1.5" stroke-dasharray="2 6"/>
<text x="36" y="348.0" text-anchor="end" font-size="11" fill="#A99E8C">0%</text>
<line x1="46" y1="244.7" x2="522" y2="244.7" stroke="#E4DBCB" stroke-width="1.5" stroke-dasharray="2 6"/>
<text x="36" y="248.7" text-anchor="end" font-size="11" fill="#A99E8C">10%</text>
<line x1="46" y1="145.3" x2="522" y2="145.3" stroke="#E4DBCB" stroke-width="1.5" stroke-dasharray="2 6"/>
<text x="36" y="149.3" text-anchor="end" font-size="11" fill="#A99E8C">20%</text>
<line x1="46" y1="46.0" x2="522" y2="46.0" stroke="#E4DBCB" stroke-width="1.5" stroke-dasharray="2 6"/>
<text x="36" y="50.0" text-anchor="end" font-size="11" fill="#A99E8C">30%</text>
<text x="85.7" y="366.0" text-anchor="middle" font-size="11.5" fill="#8C8373">2025</text>
<g class="bob" style="animation-delay:0.90s">
<rect class="grow" style="animation-delay:0.00s" x="58.2" y="254.6" width="15.0" height="89.4" rx="7" fill="#7C83DB" filter="url(#clayBar)"/>
<rect class="grow" style="animation-delay:0.00s" x="60.7" y="256.6" width="10.0" height="10.0" rx="5" fill="#AEB3EE" opacity="0.75"/>
<text class="lbl" style="animation-delay:0.70s" x="65.7" y="249.6" text-anchor="middle" font-size="9.5" font-weight="600" fill="#3A3F86">9.0</text>
</g>
<g class="bob" style="animation-delay:0.94s">
<rect class="grow" style="animation-delay:0.05s" x="78.2" y="324.1" width="15.0" height="19.9" rx="7" fill="#E89B73" filter="url(#clayBar)"/>
<rect class="grow" style="animation-delay:0.05s" x="80.7" y="326.1" width="10.0" height="10.0" rx="5" fill="#F4C2A3" opacity="0.75"/>
<text class="lbl" style="animation-delay:0.75s" x="85.7" y="319.1" text-anchor="middle" font-size="9.5" font-weight="600" fill="#9A5731">2.0</text>
</g>
<g class="bob" style="animation-delay:0.98s">
<rect class="grow" style="animation-delay:0.10s" x="98.2" y="140.4" width="15.0" height="203.6" rx="7" fill="#56C6A0" filter="url(#clayBar)"/>
<rect class="grow" style="animation-delay:0.10s" x="100.7" y="142.4" width="10.0" height="10.0" rx="5" fill="#8FE0C8" opacity="0.75"/>
<text class="lbl" style="animation-delay:0.80s" x="105.7" y="135.4" text-anchor="middle" font-size="9.5" font-weight="600" fill="#2C7A5F">20.5</text>
</g>
<text x="165.0" y="366.0" text-anchor="middle" font-size="11.5" fill="#8C8373">2026</text>
<g class="bob" style="animation-delay:0.96s">
<rect class="grow" style="animation-delay:0.07s" x="137.5" y="251.6" width="15.0" height="92.4" rx="7" fill="#7C83DB" filter="url(#clayBar)"/>
<rect class="grow" style="animation-delay:0.07s" x="140.0" y="253.6" width="10.0" height="10.0" rx="5" fill="#AEB3EE" opacity="0.75"/>
<text class="lbl" style="animation-delay:0.77s" x="145.0" y="246.6" text-anchor="middle" font-size="9.5" font-weight="600" fill="#3A3F86">9.3</text>
</g>
<g class="bob" style="animation-delay:1.00s">
<rect class="grow" style="animation-delay:0.12s" x="157.5" y="326.1" width="15.0" height="17.9" rx="7" fill="#E89B73" filter="url(#clayBar)"/>
<rect class="grow" style="animation-delay:0.12s" x="160.0" y="328.1" width="10.0" height="10.0" rx="5" fill="#F4C2A3" opacity="0.75"/>
<text class="lbl" style="animation-delay:0.82s" x="165.0" y="321.1" text-anchor="middle" font-size="9.5" font-weight="600" fill="#9A5731">1.8</text>
</g>
<g class="bob" style="animation-delay:1.04s">
<rect class="grow" style="animation-delay:0.17s" x="177.5" y="147.3" width="15.0" height="196.7" rx="7" fill="#56C6A0" filter="url(#clayBar)"/>
<rect class="grow" style="animation-delay:0.17s" x="180.0" y="149.3" width="10.0" height="10.0" rx="5" fill="#8FE0C8" opacity="0.75"/>
<text class="lbl" style="animation-delay:0.87s" x="185.0" y="142.3" text-anchor="middle" font-size="9.5" font-weight="600" fill="#2C7A5F">19.8</text>
</g>
<text x="244.3" y="366.0" text-anchor="middle" font-size="11.5" fill="#8C8373">2027</text>
<g class="bob" style="animation-delay:1.02s">
<rect class="grow" style="animation-delay:0.14s" x="216.8" y="247.6" width="15.0" height="96.4" rx="7" fill="#7C83DB" filter="url(#clayBar)"/>
<rect class="grow" style="animation-delay:0.14s" x="219.3" y="249.6" width="10.0" height="10.0" rx="5" fill="#AEB3EE" opacity="0.75"/>
<text class="lbl" style="animation-delay:0.84s" x="224.3" y="242.6" text-anchor="middle" font-size="9.5" font-weight="600" fill="#3A3F86">9.7</text>
</g>
<g class="bob" style="animation-delay:1.06s">
<rect class="grow" style="animation-delay:0.19s" x="236.8" y="328.1" width="15.0" height="15.9" rx="7" fill="#E89B73" filter="url(#clayBar)"/>
<rect class="grow" style="animation-delay:0.19s" x="239.3" y="330.1" width="10.0" height="10.0" rx="5" fill="#F4C2A3" opacity="0.75"/>
<text class="lbl" style="animation-delay:0.89s" x="244.3" y="323.1" text-anchor="middle" font-size="9.5" font-weight="600" fill="#9A5731">1.6</text>
</g>
<g class="bob" style="animation-delay:1.10s">
<rect class="grow" style="animation-delay:0.24s" x="256.8" y="152.3" width="15.0" height="191.7" rx="7" fill="#56C6A0" filter="url(#clayBar)"/>
<rect class="grow" style="animation-delay:0.24s" x="259.3" y="154.3" width="10.0" height="10.0" rx="5" fill="#8FE0C8" opacity="0.75"/>
<text class="lbl" style="animation-delay:0.94s" x="264.3" y="147.3" text-anchor="middle" font-size="9.5" font-weight="600" fill="#2C7A5F">19.3</text>
</g>
<text x="323.7" y="366.0" text-anchor="middle" font-size="11.5" fill="#8C8373">2028</text>
<g class="bob" style="animation-delay:1.08s">
<rect class="grow" style="animation-delay:0.21s" x="296.2" y="242.7" width="15.0" height="101.3" rx="7" fill="#7C83DB" filter="url(#clayBar)"/>
<rect class="grow" style="animation-delay:0.21s" x="298.7" y="244.7" width="10.0" height="10.0" rx="5" fill="#AEB3EE" opacity="0.75"/>
<text class="lbl" style="animation-delay:0.91s" x="303.7" y="237.7" text-anchor="middle" font-size="9.5" font-weight="600" fill="#3A3F86">10.2</text>
</g>
<g class="bob" style="animation-delay:1.12s">
<rect class="grow" style="animation-delay:0.26s" x="316.2" y="330.1" width="15.0" height="13.9" rx="7" fill="#E89B73" filter="url(#clayBar)"/>
<rect class="grow" style="animation-delay:0.26s" x="318.7" y="332.1" width="10.0" height="10.0" rx="5" fill="#F4C2A3" opacity="0.75"/>
<text class="lbl" style="animation-delay:0.96s" x="323.7" y="325.1" text-anchor="middle" font-size="9.5" font-weight="600" fill="#9A5731">1.4</text>
</g>
<g class="bob" style="animation-delay:1.16s">
<rect class="grow" style="animation-delay:0.31s" x="336.2" y="155.3" width="15.0" height="188.7" rx="7" fill="#56C6A0" filter="url(#clayBar)"/>
<rect class="grow" style="animation-delay:0.31s" x="338.7" y="157.3" width="10.0" height="10.0" rx="5" fill="#8FE0C8" opacity="0.75"/>
<text class="lbl" style="animation-delay:1.01s" x="343.7" y="150.3" text-anchor="middle" font-size="9.5" font-weight="600" fill="#2C7A5F">19.0</text>
</g>
<text x="403.0" y="366.0" text-anchor="middle" font-size="11.5" fill="#8C8373">2029</text>
<g class="bob" style="animation-delay:1.14s">
<rect class="grow" style="animation-delay:0.28s" x="375.5" y="236.7" width="15.0" height="107.3" rx="7" fill="#7C83DB" filter="url(#clayBar)"/>
<rect class="grow" style="animation-delay:0.28s" x="378.0" y="238.7" width="10.0" height="10.0" rx="5" fill="#AEB3EE" opacity="0.75"/>
<text class="lbl" style="animation-delay:0.98s" x="383.0" y="231.7" text-anchor="middle" font-size="9.5" font-weight="600" fill="#3A3F86">10.8</text>
</g>
<g class="bob" style="animation-delay:1.18s">
<rect class="grow" style="animation-delay:0.33s" x="395.5" y="332.1" width="15.0" height="11.9" rx="7" fill="#E89B73" filter="url(#clayBar)"/>
<rect class="grow" style="animation-delay:0.33s" x="398.0" y="334.1" width="10.0" height="9.9" rx="5" fill="#F4C2A3" opacity="0.75"/>
<text class="lbl" style="animation-delay:1.03s" x="403.0" y="327.1" text-anchor="middle" font-size="9.5" font-weight="600" fill="#9A5731">1.2</text>
</g>
<g class="bob" style="animation-delay:1.22s">
<rect class="grow" style="animation-delay:0.38s" x="415.5" y="155.3" width="15.0" height="188.7" rx="7" fill="#56C6A0" filter="url(#clayBar)"/>
<rect class="grow" style="animation-delay:0.38s" x="418.0" y="157.3" width="10.0" height="10.0" rx="5" fill="#8FE0C8" opacity="0.75"/>
<text class="lbl" style="animation-delay:1.08s" x="423.0" y="150.3" text-anchor="middle" font-size="9.5" font-weight="600" fill="#2C7A5F">19.0</text>
</g>
<text x="482.3" y="366.0" text-anchor="middle" font-size="11.5" fill="#8C8373">2030</text>
<g class="bob" style="animation-delay:1.20s">
<rect class="grow" style="animation-delay:0.35s" x="454.8" y="228.8" width="15.0" height="115.2" rx="7" fill="#7C83DB" filter="url(#clayBar)"/>
<rect class="grow" style="animation-delay:0.35s" x="457.3" y="230.8" width="10.0" height="10.0" rx="5" fill="#AEB3EE" opacity="0.75"/>
<text class="lbl" style="animation-delay:1.05s" x="462.3" y="223.8" text-anchor="middle" font-size="9.5" font-weight="600" fill="#3A3F86">11.6</text>
</g>
<g class="bob" style="animation-delay:1.24s">
<rect class="grow" style="animation-delay:0.40s" x="474.8" y="334.1" width="15.0" height="9.9" rx="7" fill="#E89B73" filter="url(#clayBar)"/>
<rect class="grow" style="animation-delay:0.40s" x="477.3" y="336.1" width="10.0" height="7.9" rx="5" fill="#F4C2A3" opacity="0.75"/>
<text class="lbl" style="animation-delay:1.10s" x="482.3" y="329.1" text-anchor="middle" font-size="9.5" font-weight="600" fill="#9A5731">1.0</text>
</g>
<g class="bob" style="animation-delay:1.28s">
<rect class="grow" style="animation-delay:0.45s" x="494.8" y="152.3" width="15.0" height="191.7" rx="7" fill="#56C6A0" filter="url(#clayBar)"/>
<rect class="grow" style="animation-delay:0.45s" x="497.3" y="154.3" width="10.0" height="10.0" rx="5" fill="#8FE0C8" opacity="0.75"/>
<text class="lbl" style="animation-delay:1.15s" x="502.3" y="147.3" text-anchor="middle" font-size="9.5" font-weight="600" fill="#2C7A5F">19.3</text>
</g>
</g>
<g transform="translate(600,116)">
<rect x="0" y="0" width="540" height="380" rx="26" fill="#FBF7EF" filter="url(#claySoft)"/>
<rect x="14" y="12" width="512" height="16" rx="8" fill="#ffffff" opacity="0.55"/>
<text x="26" y="38" font-size="19" font-weight="600" fill="#3F3A33">e&amp;</text>
<line x1="46" y1="344.0" x2="522" y2="344.0" stroke="#E4DBCB" stroke-width="1.5" stroke-dasharray="2 6"/>
<text x="36" y="348.0" text-anchor="end" font-size="11" fill="#A99E8C">0%</text>
<line x1="46" y1="244.7" x2="522" y2="244.7" stroke="#E4DBCB" stroke-width="1.5" stroke-dasharray="2 6"/>
<text x="36" y="248.7" text-anchor="end" font-size="11" fill="#A99E8C">10%</text>
<line x1="46" y1="145.3" x2="522" y2="145.3" stroke="#E4DBCB" stroke-width="1.5" stroke-dasharray="2 6"/>
<text x="36" y="149.3" text-anchor="end" font-size="11" fill="#A99E8C">20%</text>
<line x1="46" y1="46.0" x2="522" y2="46.0" stroke="#E4DBCB" stroke-width="1.5" stroke-dasharray="2 6"/>
<text x="36" y="50.0" text-anchor="end" font-size="11" fill="#A99E8C">30%</text>
<text x="85.7" y="366.0" text-anchor="middle" font-size="11.5" fill="#8C8373">2025</text>
<g class="bob" style="animation-delay:0.90s">
<rect class="grow" style="animation-delay:0.00s" x="58.2" y="220.8" width="15.0" height="123.2" rx="7" fill="#7C83DB" filter="url(#clayBar)"/>
<rect class="grow" style="animation-delay:0.00s" x="60.7" y="222.8" width="10.0" height="10.0" rx="5" fill="#AEB3EE" opacity="0.75"/>
<text class="lbl" style="animation-delay:0.70s" x="65.7" y="215.8" text-anchor="middle" font-size="9.5" font-weight="600" fill="#3A3F86">12.4</text>
</g>
<g class="bob" style="animation-delay:0.94s">
<rect class="grow" style="animation-delay:0.05s" x="78.2" y="319.2" width="15.0" height="24.8" rx="7" fill="#E89B73" filter="url(#clayBar)"/>
<rect class="grow" style="animation-delay:0.05s" x="80.7" y="321.2" width="10.0" height="10.0" rx="5" fill="#F4C2A3" opacity="0.75"/>
<text class="lbl" style="animation-delay:0.75s" x="85.7" y="314.2" text-anchor="middle" font-size="9.5" font-weight="600" fill="#9A5731">2.5</text>
</g>
<g class="bob" style="animation-delay:0.98s">
<rect class="grow" style="animation-delay:0.10s" x="98.2" y="91.7" width="15.0" height="252.3" rx="7" fill="#56C6A0" filter="url(#clayBar)"/>
<rect class="grow" style="animation-delay:0.10s" x="100.7" y="93.7" width="10.0" height="10.0" rx="5" fill="#8FE0C8" opacity="0.75"/>
<text class="lbl" style="animation-delay:0.80s" x="105.7" y="86.7" text-anchor="middle" font-size="9.5" font-weight="600" fill="#2C7A5F">25.4</text>
</g>
<text x="165.0" y="366.0" text-anchor="middle" font-size="11.5" fill="#8C8373">2026</text>
<g class="bob" style="animation-delay:0.96s">
<rect class="grow" style="animation-delay:0.07s" x="137.5" y="213.9" width="15.0" height="130.1" rx="7" fill="#7C83DB" filter="url(#clayBar)"/>
<rect class="grow" style="animation-delay:0.07s" x="140.0" y="215.9" width="10.0" height="10.0" rx="5" fill="#AEB3EE" opacity="0.75"/>
<text class="lbl" style="animation-delay:0.77s" x="145.0" y="208.9" text-anchor="middle" font-size="9.5" font-weight="600" fill="#3A3F86">13.1</text>
</g>
<g class="bob" style="animation-delay:1.00s">
<rect class="grow" style="animation-delay:0.12s" x="157.5" y="322.1" width="15.0" height="21.9" rx="7" fill="#E89B73" filter="url(#clayBar)"/>
<rect class="grow" style="animation-delay:0.12s" x="160.0" y="324.1" width="10.0" height="10.0" rx="5" fill="#F4C2A3" opacity="0.75"/>
<text class="lbl" style="animation-delay:0.82s" x="165.0" y="317.1" text-anchor="middle" font-size="9.5" font-weight="600" fill="#9A5731">2.2</text>
</g>
<g class="bob" style="animation-delay:1.04s">
<rect class="grow" style="animation-delay:0.17s" x="177.5" y="96.7" width="15.0" height="247.3" rx="7" fill="#56C6A0" filter="url(#clayBar)"/>
<rect class="grow" style="animation-delay:0.17s" x="180.0" y="98.7" width="10.0" height="10.0" rx="5" fill="#8FE0C8" opacity="0.75"/>
<text class="lbl" style="animation-delay:0.87s" x="185.0" y="91.7" text-anchor="middle" font-size="9.5" font-weight="600" fill="#2C7A5F">24.9</text>
</g>
<text x="244.3" y="366.0" text-anchor="middle" font-size="11.5" fill="#8C8373">2027</text>
<g class="bob" style="animation-delay:1.02s">
<rect class="grow" style="animation-delay:0.14s" x="216.8" y="229.8" width="15.0" height="114.2" rx="7" fill="#7C83DB" filter="url(#clayBar)"/>
<rect class="grow" style="animation-delay:0.14s" x="219.3" y="231.8" width="10.0" height="10.0" rx="5" fill="#AEB3EE" opacity="0.75"/>
<text class="lbl" style="animation-delay:0.84s" x="224.3" y="224.8" text-anchor="middle" font-size="9.5" font-weight="600" fill="#3A3F86">11.5</text>
</g>
<g class="bob" style="animation-delay:1.06s">
<rect class="grow" style="animation-delay:0.19s" x="236.8" y="324.1" width="15.0" height="19.9" rx="7" fill="#E89B73" filter="url(#clayBar)"/>
<rect class="grow" style="animation-delay:0.19s" x="239.3" y="326.1" width="10.0" height="10.0" rx="5" fill="#F4C2A3" opacity="0.75"/>
<text class="lbl" style="animation-delay:0.89s" x="244.3" y="319.1" text-anchor="middle" font-size="9.5" font-weight="600" fill="#9A5731">2.0</text>
</g>
<g class="bob" style="animation-delay:1.10s">
<rect class="grow" style="animation-delay:0.24s" x="256.8" y="146.3" width="15.0" height="197.7" rx="7" fill="#56C6A0" filter="url(#clayBar)"/>
<rect class="grow" style="animation-delay:0.24s" x="259.3" y="148.3" width="10.0" height="10.0" rx="5" fill="#8FE0C8" opacity="0.75"/>
<text class="lbl" style="animation-delay:0.94s" x="264.3" y="141.3" text-anchor="middle" font-size="9.5" font-weight="600" fill="#2C7A5F">19.9</text>
</g>
<text x="323.7" y="366.0" text-anchor="middle" font-size="11.5" fill="#8C8373">2028</text>
<g class="bob" style="animation-delay:1.08s">
<rect class="grow" style="animation-delay:0.21s" x="296.2" y="222.8" width="15.0" height="121.2" rx="7" fill="#7C83DB" filter="url(#clayBar)"/>
<rect class="grow" style="animation-delay:0.21s" x="298.7" y="224.8" width="10.0" height="10.0" rx="5" fill="#AEB3EE" opacity="0.75"/>
<text class="lbl" style="animation-delay:0.91s" x="303.7" y="217.8" text-anchor="middle" font-size="9.5" font-weight="600" fill="#3A3F86">12.2</text>
</g>
<g class="bob" style="animation-delay:1.12s">
<rect class="grow" style="animation-delay:0.26s" x="316.2" y="326.1" width="15.0" height="17.9" rx="7" fill="#E89B73" filter="url(#clayBar)"/>
<rect class="grow" style="animation-delay:0.26s" x="318.7" y="328.1" width="10.0" height="10.0" rx="5" fill="#F4C2A3" opacity="0.75"/>
<text class="lbl" style="animation-delay:0.96s" x="323.7" y="321.1" text-anchor="middle" font-size="9.5" font-weight="600" fill="#9A5731">1.8</text>
</g>
<g class="bob" style="animation-delay:1.16s">
<rect class="grow" style="animation-delay:0.31s" x="336.2" y="144.3" width="15.0" height="199.7" rx="7" fill="#56C6A0" filter="url(#clayBar)"/>
<rect class="grow" style="animation-delay:0.31s" x="338.7" y="146.3" width="10.0" height="10.0" rx="5" fill="#8FE0C8" opacity="0.75"/>
<text class="lbl" style="animation-delay:1.01s" x="343.7" y="139.3" text-anchor="middle" font-size="9.5" font-weight="600" fill="#2C7A5F">20.1</text>
</g>
<text x="403.0" y="366.0" text-anchor="middle" font-size="11.5" fill="#8C8373">2029</text>
<g class="bob" style="animation-delay:1.14s">
<rect class="grow" style="animation-delay:0.28s" x="375.5" y="213.9" width="15.0" height="130.1" rx="7" fill="#7C83DB" filter="url(#clayBar)"/>
<rect class="grow" style="animation-delay:0.28s" x="378.0" y="215.9" width="10.0" height="10.0" rx="5" fill="#AEB3EE" opacity="0.75"/>
<text class="lbl" style="animation-delay:0.98s" x="383.0" y="208.9" text-anchor="middle" font-size="9.5" font-weight="600" fill="#3A3F86">13.1</text>
</g>
<g class="bob" style="animation-delay:1.18s">
<rect class="grow" style="animation-delay:0.33s" x="395.5" y="329.1" width="15.0" height="14.9" rx="7" fill="#E89B73" filter="url(#clayBar)"/>
<rect class="grow" style="animation-delay:0.33s" x="398.0" y="331.1" width="10.0" height="10.0" rx="5" fill="#F4C2A3" opacity="0.75"/>
<text class="lbl" style="animation-delay:1.03s" x="403.0" y="324.1" text-anchor="middle" font-size="9.5" font-weight="600" fill="#9A5731">1.5</text>
</g>
<g class="bob" style="animation-delay:1.22s">
<rect class="grow" style="animation-delay:0.38s" x="415.5" y="140.4" width="15.0" height="203.6" rx="7" fill="#56C6A0" filter="url(#clayBar)"/>
<rect class="grow" style="animation-delay:0.38s" x="418.0" y="142.4" width="10.0" height="10.0" rx="5" fill="#8FE0C8" opacity="0.75"/>
<text class="lbl" style="animation-delay:1.08s" x="423.0" y="135.4" text-anchor="middle" font-size="9.5" font-weight="600" fill="#2C7A5F">20.5</text>
</g>
<text x="482.3" y="366.0" text-anchor="middle" font-size="11.5" fill="#8C8373">2030</text>
<g class="bob" style="animation-delay:1.20s">
<rect class="grow" style="animation-delay:0.35s" x="454.8" y="202.0" width="15.0" height="142.0" rx="7" fill="#7C83DB" filter="url(#clayBar)"/>
<rect class="grow" style="animation-delay:0.35s" x="457.3" y="204.0" width="10.0" height="10.0" rx="5" fill="#AEB3EE" opacity="0.75"/>
<text class="lbl" style="animation-delay:1.05s" x="462.3" y="197.0" text-anchor="middle" font-size="9.5" font-weight="600" fill="#3A3F86">14.3</text>
</g>
<g class="bob" style="animation-delay:1.24s">
<rect class="grow" style="animation-delay:0.40s" x="474.8" y="332.1" width="15.0" height="11.9" rx="7" fill="#E89B73" filter="url(#clayBar)"/>
<rect class="grow" style="animation-delay:0.40s" x="477.3" y="334.1" width="10.0" height="9.9" rx="5" fill="#F4C2A3" opacity="0.75"/>
<text class="lbl" style="animation-delay:1.10s" x="482.3" y="327.1" text-anchor="middle" font-size="9.5" font-weight="600" fill="#9A5731">1.2</text>
</g>
<g class="bob" style="animation-delay:1.28s">
<rect class="grow" style="animation-delay:0.45s" x="494.8" y="132.4" width="15.0" height="211.6" rx="7" fill="#56C6A0" filter="url(#clayBar)"/>
<rect class="grow" style="animation-delay:0.45s" x="497.3" y="134.4" width="10.0" height="10.0" rx="5" fill="#8FE0C8" opacity="0.75"/>
<text class="lbl" style="animation-delay:1.15s" x="502.3" y="127.4" text-anchor="middle" font-size="9.5" font-weight="600" fill="#2C7A5F">21.3</text>
</g>
</g>
<g transform="translate(20,536)">
<rect x="0" y="0" width="540" height="380" rx="26" fill="#FBF7EF" filter="url(#claySoft)"/>
<rect x="14" y="12" width="512" height="16" rx="8" fill="#ffffff" opacity="0.55"/>
<text x="26" y="38" font-size="19" font-weight="600" fill="#3F3A33">Ooredoo</text>
<line x1="46" y1="344.0" x2="522" y2="344.0" stroke="#E4DBCB" stroke-width="1.5" stroke-dasharray="2 6"/>
<text x="36" y="348.0" text-anchor="end" font-size="11" fill="#A99E8C">0%</text>
<line x1="46" y1="244.7" x2="522" y2="244.7" stroke="#E4DBCB" stroke-width="1.5" stroke-dasharray="2 6"/>
<text x="36" y="248.7" text-anchor="end" font-size="11" fill="#A99E8C">10%</text>
<line x1="46" y1="145.3" x2="522" y2="145.3" stroke="#E4DBCB" stroke-width="1.5" stroke-dasharray="2 6"/>
<text x="36" y="149.3" text-anchor="end" font-size="11" fill="#A99E8C">20%</text>
<line x1="46" y1="46.0" x2="522" y2="46.0" stroke="#E4DBCB" stroke-width="1.5" stroke-dasharray="2 6"/>
<text x="36" y="50.0" text-anchor="end" font-size="11" fill="#A99E8C">30%</text>
<text x="85.7" y="366.0" text-anchor="middle" font-size="11.5" fill="#8C8373">2025</text>
<g class="bob" style="animation-delay:0.90s">
<rect class="grow" style="animation-delay:0.00s" x="58.2" y="278.4" width="15.0" height="65.6" rx="7" fill="#7C83DB" filter="url(#clayBar)"/>
<rect class="grow" style="animation-delay:0.00s" x="60.7" y="280.4" width="10.0" height="10.0" rx="5" fill="#AEB3EE" opacity="0.75"/>
<text class="lbl" style="animation-delay:0.70s" x="65.7" y="273.4" text-anchor="middle" font-size="9.5" font-weight="600" fill="#3A3F86">6.6</text>
</g>
<g class="bob" style="animation-delay:0.94s">
<rect class="grow" style="animation-delay:0.05s" x="78.2" y="326.1" width="15.0" height="17.9" rx="7" fill="#E89B73" filter="url(#clayBar)"/>
<rect class="grow" style="animation-delay:0.05s" x="80.7" y="328.1" width="10.0" height="10.0" rx="5" fill="#F4C2A3" opacity="0.75"/>
<text class="lbl" style="animation-delay:0.75s" x="85.7" y="321.1" text-anchor="middle" font-size="9.5" font-weight="600" fill="#9A5731">1.8</text>
</g>
<g class="bob" style="animation-delay:0.98s">
<rect class="grow" style="animation-delay:0.10s" x="98.2" y="184.1" width="15.0" height="159.9" rx="7" fill="#56C6A0" filter="url(#clayBar)"/>
<rect class="grow" style="animation-delay:0.10s" x="100.7" y="186.1" width="10.0" height="10.0" rx="5" fill="#8FE0C8" opacity="0.75"/>
<text class="lbl" style="animation-delay:0.80s" x="105.7" y="179.1" text-anchor="middle" font-size="9.5" font-weight="600" fill="#2C7A5F">16.1</text>
</g>
<text x="165.0" y="366.0" text-anchor="middle" font-size="11.5" fill="#8C8373">2026</text>
<g class="bob" style="animation-delay:0.96s">
<rect class="grow" style="animation-delay:0.07s" x="137.5" y="259.6" width="15.0" height="84.4" rx="7" fill="#7C83DB" filter="url(#clayBar)"/>
<rect class="grow" style="animation-delay:0.07s" x="140.0" y="261.6" width="10.0" height="10.0" rx="5" fill="#AEB3EE" opacity="0.75"/>
<text class="lbl" style="animation-delay:0.77s" x="145.0" y="254.6" text-anchor="middle" font-size="9.5" font-weight="600" fill="#3A3F86">8.5</text>
</g>
<g class="bob" style="animation-delay:1.00s">
<rect class="grow" style="animation-delay:0.12s" x="157.5" y="328.1" width="15.0" height="15.9" rx="7" fill="#E89B73" filter="url(#clayBar)"/>
<rect class="grow" style="animation-delay:0.12s" x="160.0" y="330.1" width="10.0" height="10.0" rx="5" fill="#F4C2A3" opacity="0.75"/>
<text class="lbl" style="animation-delay:0.82s" x="165.0" y="323.1" text-anchor="middle" font-size="9.5" font-weight="600" fill="#9A5731">1.6</text>
</g>
<g class="bob" style="animation-delay:1.04s">
<rect class="grow" style="animation-delay:0.17s" x="177.5" y="143.3" width="15.0" height="200.7" rx="7" fill="#56C6A0" filter="url(#clayBar)"/>
<rect class="grow" style="animation-delay:0.17s" x="180.0" y="145.3" width="10.0" height="10.0" rx="5" fill="#8FE0C8" opacity="0.75"/>
<text class="lbl" style="animation-delay:0.87s" x="185.0" y="138.3" text-anchor="middle" font-size="9.5" font-weight="600" fill="#2C7A5F">20.2</text>
</g>
<text x="244.3" y="366.0" text-anchor="middle" font-size="11.5" fill="#8C8373">2027</text>
<g class="bob" style="animation-delay:1.02s">
<rect class="grow" style="animation-delay:0.14s" x="216.8" y="256.6" width="15.0" height="87.4" rx="7" fill="#7C83DB" filter="url(#clayBar)"/>
<rect class="grow" style="animation-delay:0.14s" x="219.3" y="258.6" width="10.0" height="10.0" rx="5" fill="#AEB3EE" opacity="0.75"/>
<text class="lbl" style="animation-delay:0.84s" x="224.3" y="251.6" text-anchor="middle" font-size="9.5" font-weight="600" fill="#3A3F86">8.8</text>
</g>
<g class="bob" style="animation-delay:1.06s">
<rect class="grow" style="animation-delay:0.19s" x="236.8" y="330.1" width="15.0" height="13.9" rx="7" fill="#E89B73" filter="url(#clayBar)"/>
<rect class="grow" style="animation-delay:0.19s" x="239.3" y="332.1" width="10.0" height="10.0" rx="5" fill="#F4C2A3" opacity="0.75"/>
<text class="lbl" style="animation-delay:0.89s" x="244.3" y="325.1" text-anchor="middle" font-size="9.5" font-weight="600" fill="#9A5731">1.4</text>
</g>
<g class="bob" style="animation-delay:1.10s">
<rect class="grow" style="animation-delay:0.24s" x="256.8" y="151.3" width="15.0" height="192.7" rx="7" fill="#56C6A0" filter="url(#clayBar)"/>
<rect class="grow" style="animation-delay:0.24s" x="259.3" y="153.3" width="10.0" height="10.0" rx="5" fill="#8FE0C8" opacity="0.75"/>
<text class="lbl" style="animation-delay:0.94s" x="264.3" y="146.3" text-anchor="middle" font-size="9.5" font-weight="600" fill="#2C7A5F">19.4</text>
</g>
<text x="323.7" y="366.0" text-anchor="middle" font-size="11.5" fill="#8C8373">2028</text>
<g class="bob" style="animation-delay:1.08s">
<rect class="grow" style="animation-delay:0.21s" x="296.2" y="253.6" width="15.0" height="90.4" rx="7" fill="#7C83DB" filter="url(#clayBar)"/>
<rect class="grow" style="animation-delay:0.21s" x="298.7" y="255.6" width="10.0" height="10.0" rx="5" fill="#AEB3EE" opacity="0.75"/>
<text class="lbl" style="animation-delay:0.91s" x="303.7" y="248.6" text-anchor="middle" font-size="9.5" font-weight="600" fill="#3A3F86">9.1</text>
</g>
<g class="bob" style="animation-delay:1.12s">
<rect class="grow" style="animation-delay:0.26s" x="316.2" y="332.1" width="15.0" height="11.9" rx="7" fill="#E89B73" filter="url(#clayBar)"/>
<rect class="grow" style="animation-delay:0.26s" x="318.7" y="334.1" width="10.0" height="9.9" rx="5" fill="#F4C2A3" opacity="0.75"/>
<text class="lbl" style="animation-delay:0.96s" x="323.7" y="327.1" text-anchor="middle" font-size="9.5" font-weight="600" fill="#9A5731">1.2</text>
</g>
<g class="bob" style="animation-delay:1.16s">
<rect class="grow" style="animation-delay:0.31s" x="336.2" y="157.3" width="15.0" height="186.7" rx="7" fill="#56C6A0" filter="url(#clayBar)"/>
<rect class="grow" style="animation-delay:0.31s" x="338.7" y="159.3" width="10.0" height="10.0" rx="5" fill="#8FE0C8" opacity="0.75"/>
<text class="lbl" style="animation-delay:1.01s" x="343.7" y="152.3" text-anchor="middle" font-size="9.5" font-weight="600" fill="#2C7A5F">18.8</text>
</g>
<text x="403.0" y="366.0" text-anchor="middle" font-size="11.5" fill="#8C8373">2029</text>
<g class="bob" style="animation-delay:1.14s">
<rect class="grow" style="animation-delay:0.28s" x="375.5" y="247.6" width="15.0" height="96.4" rx="7" fill="#7C83DB" filter="url(#clayBar)"/>
<rect class="grow" style="animation-delay:0.28s" x="378.0" y="249.6" width="10.0" height="10.0" rx="5" fill="#AEB3EE" opacity="0.75"/>
<text class="lbl" style="animation-delay:0.98s" x="383.0" y="242.6" text-anchor="middle" font-size="9.5" font-weight="600" fill="#3A3F86">9.7</text>
</g>
<g class="bob" style="animation-delay:1.18s">
<rect class="grow" style="animation-delay:0.33s" x="395.5" y="333.1" width="15.0" height="10.9" rx="7" fill="#E89B73" filter="url(#clayBar)"/>
<rect class="grow" style="animation-delay:0.33s" x="398.0" y="335.1" width="10.0" height="8.9" rx="5" fill="#F4C2A3" opacity="0.75"/>
<text class="lbl" style="animation-delay:1.03s" x="403.0" y="328.1" text-anchor="middle" font-size="9.5" font-weight="600" fill="#9A5731">1.1</text>
</g>
<g class="bob" style="animation-delay:1.22s">
<rect class="grow" style="animation-delay:0.38s" x="415.5" y="158.2" width="15.0" height="185.8" rx="7" fill="#56C6A0" filter="url(#clayBar)"/>
<rect class="grow" style="animation-delay:0.38s" x="418.0" y="160.2" width="10.0" height="10.0" rx="5" fill="#8FE0C8" opacity="0.75"/>
<text class="lbl" style="animation-delay:1.08s" x="423.0" y="153.2" text-anchor="middle" font-size="9.5" font-weight="600" fill="#2C7A5F">18.7</text>
</g>
<text x="482.3" y="366.0" text-anchor="middle" font-size="11.5" fill="#8C8373">2030</text>
<g class="bob" style="animation-delay:1.20s">
<rect class="grow" style="animation-delay:0.35s" x="454.8" y="265.5" width="15.0" height="78.5" rx="7" fill="#7C83DB" filter="url(#clayBar)"/>
<rect class="grow" style="animation-delay:0.35s" x="457.3" y="267.5" width="10.0" height="10.0" rx="5" fill="#AEB3EE" opacity="0.75"/>
<text class="lbl" style="animation-delay:1.05s" x="462.3" y="260.5" text-anchor="middle" font-size="9.5" font-weight="600" fill="#3A3F86">7.9</text>
</g>
<g class="bob" style="animation-delay:1.24s">
<rect class="grow" style="animation-delay:0.40s" x="474.8" y="334.1" width="15.0" height="9.9" rx="7" fill="#E89B73" filter="url(#clayBar)"/>
<rect class="grow" style="animation-delay:0.40s" x="477.3" y="336.1" width="10.0" height="7.9" rx="5" fill="#F4C2A3" opacity="0.75"/>
<text class="lbl" style="animation-delay:1.10s" x="482.3" y="329.1" text-anchor="middle" font-size="9.5" font-weight="600" fill="#9A5731">1.0</text>
</g>
<g class="bob" style="animation-delay:1.28s">
<rect class="grow" style="animation-delay:0.45s" x="494.8" y="204.9" width="15.0" height="139.1" rx="7" fill="#56C6A0" filter="url(#clayBar)"/>
<rect class="grow" style="animation-delay:0.45s" x="497.3" y="206.9" width="10.0" height="10.0" rx="5" fill="#8FE0C8" opacity="0.75"/>
<text class="lbl" style="animation-delay:1.15s" x="502.3" y="199.9" text-anchor="middle" font-size="9.5" font-weight="600" fill="#2C7A5F">14.0</text>
</g>
</g>
<g transform="translate(600,536)">
<rect x="0" y="0" width="540" height="380" rx="26" fill="#FBF7EF" filter="url(#claySoft)"/>
<rect x="14" y="12" width="512" height="16" rx="8" fill="#ffffff" opacity="0.55"/>
<text x="26" y="38" font-size="19" font-weight="600" fill="#3F3A33">Zain</text>
<line x1="46" y1="344.0" x2="522" y2="344.0" stroke="#E4DBCB" stroke-width="1.5" stroke-dasharray="2 6"/>
<text x="36" y="348.0" text-anchor="end" font-size="11" fill="#A99E8C">0%</text>
<line x1="46" y1="244.7" x2="522" y2="244.7" stroke="#E4DBCB" stroke-width="1.5" stroke-dasharray="2 6"/>
<text x="36" y="248.7" text-anchor="end" font-size="11" fill="#A99E8C">10%</text>
<line x1="46" y1="145.3" x2="522" y2="145.3" stroke="#E4DBCB" stroke-width="1.5" stroke-dasharray="2 6"/>
<text x="36" y="149.3" text-anchor="end" font-size="11" fill="#A99E8C">20%</text>
<line x1="46" y1="46.0" x2="522" y2="46.0" stroke="#E4DBCB" stroke-width="1.5" stroke-dasharray="2 6"/>
<text x="36" y="50.0" text-anchor="end" font-size="11" fill="#A99E8C">30%</text>
<text x="85.7" y="366.0" text-anchor="middle" font-size="11.5" fill="#8C8373">2025</text>
<g class="bob" style="animation-delay:0.90s">
<rect class="grow" style="animation-delay:0.00s" x="58.2" y="232.7" width="15.0" height="111.3" rx="7" fill="#7C83DB" filter="url(#clayBar)"/>
<rect class="grow" style="animation-delay:0.00s" x="60.7" y="234.7" width="10.0" height="10.0" rx="5" fill="#AEB3EE" opacity="0.75"/>
<text class="lbl" style="animation-delay:0.70s" x="65.7" y="227.7" text-anchor="middle" font-size="9.5" font-weight="600" fill="#3A3F86">11.2</text>
</g>
<g class="bob" style="animation-delay:0.94s">
<rect class="grow" style="animation-delay:0.05s" x="78.2" y="322.1" width="15.0" height="21.9" rx="7" fill="#E89B73" filter="url(#clayBar)"/>
<rect class="grow" style="animation-delay:0.05s" x="80.7" y="324.1" width="10.0" height="10.0" rx="5" fill="#F4C2A3" opacity="0.75"/>
<text class="lbl" style="animation-delay:0.75s" x="85.7" y="317.1" text-anchor="middle" font-size="9.5" font-weight="600" fill="#9A5731">2.2</text>
</g>
<g class="bob" style="animation-delay:0.98s">
<rect class="grow" style="animation-delay:0.10s" x="98.2" y="87.7" width="15.0" height="256.3" rx="7" fill="#56C6A0" filter="url(#clayBar)"/>
<rect class="grow" style="animation-delay:0.10s" x="100.7" y="89.7" width="10.0" height="10.0" rx="5" fill="#8FE0C8" opacity="0.75"/>
<text class="lbl" style="animation-delay:0.80s" x="105.7" y="82.7" text-anchor="middle" font-size="9.5" font-weight="600" fill="#2C7A5F">25.8</text>
</g>
<text x="165.0" y="366.0" text-anchor="middle" font-size="11.5" fill="#8C8373">2026</text>
<g class="bob" style="animation-delay:0.96s">
<rect class="grow" style="animation-delay:0.07s" x="137.5" y="247.6" width="15.0" height="96.4" rx="7" fill="#7C83DB" filter="url(#clayBar)"/>
<rect class="grow" style="animation-delay:0.07s" x="140.0" y="249.6" width="10.0" height="10.0" rx="5" fill="#AEB3EE" opacity="0.75"/>
<text class="lbl" style="animation-delay:0.77s" x="145.0" y="242.6" text-anchor="middle" font-size="9.5" font-weight="600" fill="#3A3F86">9.7</text>
</g>
<g class="bob" style="animation-delay:1.00s">
<rect class="grow" style="animation-delay:0.12s" x="157.5" y="324.1" width="15.0" height="19.9" rx="7" fill="#E89B73" filter="url(#clayBar)"/>
<rect class="grow" style="animation-delay:0.12s" x="160.0" y="326.1" width="10.0" height="10.0" rx="5" fill="#F4C2A3" opacity="0.75"/>
<text class="lbl" style="animation-delay:0.82s" x="165.0" y="319.1" text-anchor="middle" font-size="9.5" font-weight="600" fill="#9A5731">2.0</text>
</g>
<g class="bob" style="animation-delay:1.04s">
<rect class="grow" style="animation-delay:0.17s" x="177.5" y="146.3" width="15.0" height="197.7" rx="7" fill="#56C6A0" filter="url(#clayBar)"/>
<rect class="grow" style="animation-delay:0.17s" x="180.0" y="148.3" width="10.0" height="10.0" rx="5" fill="#8FE0C8" opacity="0.75"/>
<text class="lbl" style="animation-delay:0.87s" x="185.0" y="141.3" text-anchor="middle" font-size="9.5" font-weight="600" fill="#2C7A5F">19.9</text>
</g>
<text x="244.3" y="366.0" text-anchor="middle" font-size="11.5" fill="#8C8373">2027</text>
<g class="bob" style="animation-delay:1.02s">
<rect class="grow" style="animation-delay:0.14s" x="216.8" y="243.7" width="15.0" height="100.3" rx="7" fill="#7C83DB" filter="url(#clayBar)"/>
<rect class="grow" style="animation-delay:0.14s" x="219.3" y="245.7" width="10.0" height="10.0" rx="5" fill="#AEB3EE" opacity="0.75"/>
<text class="lbl" style="animation-delay:0.84s" x="224.3" y="238.7" text-anchor="middle" font-size="9.5" font-weight="600" fill="#3A3F86">10.1</text>
</g>
<g class="bob" style="animation-delay:1.06s">
<rect class="grow" style="animation-delay:0.19s" x="236.8" y="326.1" width="15.0" height="17.9" rx="7" fill="#E89B73" filter="url(#clayBar)"/>
<rect class="grow" style="animation-delay:0.19s" x="239.3" y="328.1" width="10.0" height="10.0" rx="5" fill="#F4C2A3" opacity="0.75"/>
<text class="lbl" style="animation-delay:0.89s" x="244.3" y="321.1" text-anchor="middle" font-size="9.5" font-weight="600" fill="#9A5731">1.8</text>
</g>
<g class="bob" style="animation-delay:1.10s">
<rect class="grow" style="animation-delay:0.24s" x="256.8" y="150.3" width="15.0" height="193.7" rx="7" fill="#56C6A0" filter="url(#clayBar)"/>
<rect class="grow" style="animation-delay:0.24s" x="259.3" y="152.3" width="10.0" height="10.0" rx="5" fill="#8FE0C8" opacity="0.75"/>
<text class="lbl" style="animation-delay:0.94s" x="264.3" y="145.3" text-anchor="middle" font-size="9.5" font-weight="600" fill="#2C7A5F">19.5</text>
</g>
<text x="323.7" y="366.0" text-anchor="middle" font-size="11.5" fill="#8C8373">2028</text>
<g class="bob" style="animation-delay:1.08s">
<rect class="grow" style="animation-delay:0.21s" x="296.2" y="238.7" width="15.0" height="105.3" rx="7" fill="#7C83DB" filter="url(#clayBar)"/>
<rect class="grow" style="animation-delay:0.21s" x="298.7" y="240.7" width="10.0" height="10.0" rx="5" fill="#AEB3EE" opacity="0.75"/>
<text class="lbl" style="animation-delay:0.91s" x="303.7" y="233.7" text-anchor="middle" font-size="9.5" font-weight="600" fill="#3A3F86">10.6</text>
</g>
<g class="bob" style="animation-delay:1.12s">
<rect class="grow" style="animation-delay:0.26s" x="316.2" y="328.1" width="15.0" height="15.9" rx="7" fill="#E89B73" filter="url(#clayBar)"/>
<rect class="grow" style="animation-delay:0.26s" x="318.7" y="330.1" width="10.0" height="10.0" rx="5" fill="#F4C2A3" opacity="0.75"/>
<text class="lbl" style="animation-delay:0.96s" x="323.7" y="323.1" text-anchor="middle" font-size="9.5" font-weight="600" fill="#9A5731">1.6</text>
</g>
<g class="bob" style="animation-delay:1.16s">
<rect class="grow" style="animation-delay:0.31s" x="336.2" y="152.3" width="15.0" height="191.7" rx="7" fill="#56C6A0" filter="url(#clayBar)"/>
<rect class="grow" style="animation-delay:0.31s" x="338.7" y="154.3" width="10.0" height="10.0" rx="5" fill="#8FE0C8" opacity="0.75"/>
<text class="lbl" style="animation-delay:1.01s" x="343.7" y="147.3" text-anchor="middle" font-size="9.5" font-weight="600" fill="#2C7A5F">19.3</text>
</g>
<text x="403.0" y="366.0" text-anchor="middle" font-size="11.5" fill="#8C8373">2029</text>
<g class="bob" style="animation-delay:1.14s">
<rect class="grow" style="animation-delay:0.28s" x="375.5" y="231.8" width="15.0" height="112.2" rx="7" fill="#7C83DB" filter="url(#clayBar)"/>
<rect class="grow" style="animation-delay:0.28s" x="378.0" y="233.8" width="10.0" height="10.0" rx="5" fill="#AEB3EE" opacity="0.75"/>
<text class="lbl" style="animation-delay:0.98s" x="383.0" y="226.8" text-anchor="middle" font-size="9.5" font-weight="600" fill="#3A3F86">11.3</text>
</g>
<g class="bob" style="animation-delay:1.18s">
<rect class="grow" style="animation-delay:0.33s" x="395.5" y="330.1" width="15.0" height="13.9" rx="7" fill="#E89B73" filter="url(#clayBar)"/>
<rect class="grow" style="animation-delay:0.33s" x="398.0" y="332.1" width="10.0" height="10.0" rx="5" fill="#F4C2A3" opacity="0.75"/>
<text class="lbl" style="animation-delay:1.03s" x="403.0" y="325.1" text-anchor="middle" font-size="9.5" font-weight="600" fill="#9A5731">1.4</text>
</g>
<g class="bob" style="animation-delay:1.22s">
<rect class="grow" style="animation-delay:0.38s" x="415.5" y="151.3" width="15.0" height="192.7" rx="7" fill="#56C6A0" filter="url(#clayBar)"/>
<rect class="grow" style="animation-delay:0.38s" x="418.0" y="153.3" width="10.0" height="10.0" rx="5" fill="#8FE0C8" opacity="0.75"/>
<text class="lbl" style="animation-delay:1.08s" x="423.0" y="146.3" text-anchor="middle" font-size="9.5" font-weight="600" fill="#2C7A5F">19.4</text>
</g>
<text x="482.3" y="366.0" text-anchor="middle" font-size="11.5" fill="#8C8373">2030</text>
<g class="bob" style="animation-delay:1.20s">
<rect class="grow" style="animation-delay:0.35s" x="454.8" y="223.8" width="15.0" height="120.2" rx="7" fill="#7C83DB" filter="url(#clayBar)"/>
<rect class="grow" style="animation-delay:0.35s" x="457.3" y="225.8" width="10.0" height="10.0" rx="5" fill="#AEB3EE" opacity="0.75"/>
<text class="lbl" style="animation-delay:1.05s" x="462.3" y="218.8" text-anchor="middle" font-size="9.5" font-weight="600" fill="#3A3F86">12.1</text>
</g>
<g class="bob" style="animation-delay:1.24s">
<rect class="grow" style="animation-delay:0.40s" x="474.8" y="332.1" width="15.0" height="11.9" rx="7" fill="#E89B73" filter="url(#clayBar)"/>
<rect class="grow" style="animation-delay:0.40s" x="477.3" y="334.1" width="10.0" height="9.9" rx="5" fill="#F4C2A3" opacity="0.75"/>
<text class="lbl" style="animation-delay:1.10s" x="482.3" y="327.1" text-anchor="middle" font-size="9.5" font-weight="600" fill="#9A5731">1.2</text>
</g>
<g class="bob" style="animation-delay:1.28s">
<rect class="grow" style="animation-delay:0.45s" x="494.8" y="148.3" width="15.0" height="195.7" rx="7" fill="#56C6A0" filter="url(#clayBar)"/>
<rect class="grow" style="animation-delay:0.45s" x="497.3" y="150.3" width="10.0" height="10.0" rx="5" fill="#8FE0C8" opacity="0.75"/>
<text class="lbl" style="animation-delay:1.15s" x="502.3" y="143.3" text-anchor="middle" font-size="9.5" font-weight="600" fill="#2C7A5F">19.7</text>
</g>
</g>
</svg>